<svg width="234" height="55" viewBox="0 0 234 55" fill="none" xmlns="http://www.w3.org/2000/svg">
<circle cx="27.5" cy="27.5" r="27" stroke="#15603F"/>
<g clip-path="url(#clip0_121_2)">
<path d="M10.66 29.1105C10.1468 29.1164 9.63663 29.1467 9.13157 29.2012C9.08766 29.2087 9.0438 29.2164 9 29.2243C9.04004 29.8755 9.13285 30.5274 9.27769 31.1746C9.67044 32.9136 10.4335 34.5951 11.5234 36.1232C12.6133 37.6514 14.0086 38.9961 15.6296 40.0807C17.2507 41.1653 19.0657 41.9685 20.9712 42.4444C22.8766 42.9203 24.8351 43.0597 26.7349 42.8545C26.7671 42.849 26.7993 42.8433 26.8314 42.8376C26.5359 42.6928 25.7824 42.1913 24.701 41.4194C23.6196 40.6476 22.2782 39.6539 20.9082 38.6099C20.1359 38.0213 19.3761 37.4331 18.6721 36.8789C17.9681 36.3247 17.3337 35.8153 16.8052 35.3799C16.2767 34.9444 15.8643 34.5914 15.5917 34.341C15.3191 34.0906 15.1916 33.9477 15.2164 33.9205C15.2667 33.8656 15.9344 34.2851 17.0727 35.0867C18.2109 35.8884 19.7265 37.0064 21.286 38.195C22.6026 39.1984 23.8667 40.1884 24.8762 41.0063C25.8856 41.8242 26.5819 42.4228 26.8536 42.7063C26.8112 42.0968 26.7227 41.487 26.5886 40.8813C25.8496 37.6089 23.813 34.5953 20.8717 32.4217C17.9304 30.2482 14.2926 29.0686 10.66 29.1105Z" fill="#387854"/>
<path d="M44.34 29.1642C44.8532 29.1701 45.3634 29.2004 45.8684 29.2549C45.9123 29.2624 45.9562 29.2701 46 29.278C45.96 29.9292 45.8671 30.5811 45.7223 31.2283C45.3296 32.9673 44.5665 34.6488 43.4766 36.177C42.3867 37.7051 40.9914 39.0498 39.3704 40.1344C37.7493 41.219 35.9343 42.0222 34.0288 42.4981C32.1234 42.974 30.1649 43.1134 28.2651 42.9082C28.2329 42.9027 28.2007 42.897 28.1686 42.8913C28.4641 42.7466 29.2176 42.245 30.299 41.4731C31.3804 40.7013 32.7218 39.7076 34.0918 38.6636C34.8641 38.075 35.6239 37.4868 36.3279 36.9326C37.0319 36.3784 37.6663 35.869 38.1948 35.4336C38.7234 34.9981 39.1357 34.6451 39.4083 34.3947C39.6809 34.1443 39.8084 34.0014 39.7836 33.9742C39.7333 33.9193 39.0656 34.3388 37.9273 35.1405C36.7891 35.9421 35.2735 37.0602 33.714 38.2488C32.3974 39.2522 31.1333 40.2421 30.1238 41.06C29.1144 41.8779 28.4181 42.4766 28.1464 42.76C28.1888 42.1505 28.2773 41.5408 28.4113 40.935C29.1504 37.6626 31.187 34.649 34.1283 32.4754C37.0696 30.3019 40.7074 29.1223 44.34 29.1642Z" fill="#387854"/>
<path d="M40.4134 21.1786C40.804 21.1831 41.1923 21.2061 41.5767 21.2476C41.6101 21.2533 41.6435 21.2592 41.6768 21.2652C41.6463 21.7608 41.5757 22.2569 41.4655 22.7495C41.1666 24.0729 40.5858 25.3527 39.7564 26.5157C38.9269 27.6786 37.865 28.7021 36.6313 29.5275C35.3976 30.3529 34.0162 30.9642 32.5661 31.3264C31.1159 31.6886 29.6254 31.7947 28.1796 31.6385C28.1551 31.6343 28.1306 31.63 28.1061 31.6256C28.331 31.5155 28.9045 31.1338 29.7275 30.5463C30.5505 29.9589 31.5714 29.2027 32.614 28.4082C33.2018 27.9602 33.78 27.5126 34.3158 27.0908C34.8516 26.669 35.3344 26.2813 35.7366 25.9499C36.1389 25.6185 36.4527 25.3499 36.6601 25.1593C36.8676 24.9687 36.9647 24.86 36.9458 24.8392C36.9075 24.7975 36.3993 25.1168 35.5331 25.7268C34.6668 26.3369 33.5134 27.1878 32.3265 28.0924C31.3245 28.8561 30.3624 29.6094 29.5942 30.2319C28.8259 30.8544 28.296 31.31 28.0893 31.5257C28.1215 31.0619 28.1889 30.5978 28.2909 30.1368C28.8534 27.6463 30.4033 25.3528 32.6418 23.6986C34.8803 22.0444 37.6488 21.1467 40.4134 21.1786Z" fill="#387854"/>
<path d="M14.9124 21.4913C14.5335 21.4956 14.1567 21.518 13.7838 21.5583C13.7513 21.5638 13.7189 21.5695 13.6866 21.5753C13.7162 22.0562 13.7847 22.5376 13.8916 23.0155C14.1817 24.2997 14.7452 25.5414 15.55 26.6699C16.3548 27.7983 17.3851 28.7913 18.5822 29.5922C19.7793 30.3931 21.1196 30.9862 22.5267 31.3377C23.9338 31.6892 25.38 31.7921 26.7829 31.6406C26.8067 31.6365 26.8304 31.6323 26.8542 31.6281C26.636 31.5212 26.0795 31.1508 25.281 30.5808C24.4824 30.0108 23.4918 29.2771 22.4802 28.5061C21.9099 28.0715 21.3488 27.6371 20.8289 27.2279C20.3091 26.8186 19.8406 26.4425 19.4503 26.1209C19.06 25.7994 18.7556 25.5387 18.5542 25.3538C18.3529 25.1689 18.2588 25.0633 18.2771 25.0432C18.3142 25.0027 18.8073 25.3125 19.6478 25.9044C20.4884 26.4964 21.6076 27.322 22.7592 28.1998C23.7314 28.9407 24.6649 29.6717 25.4103 30.2757C26.1557 30.8797 26.6699 31.3218 26.8705 31.5311C26.8393 31.081 26.7739 30.6307 26.6749 30.1834C26.1292 27.7669 24.6253 25.5415 22.4532 23.9365C20.2812 22.3314 17.5949 21.4603 14.9124 21.4913Z" fill="#387854"/>
<path d="M27.4714 22.0402C30.7858 22.0402 33.4725 19.5687 33.4725 16.5201C33.4725 13.4714 30.7858 11 27.4714 11C24.1571 11 21.4703 13.4714 21.4703 16.5201C21.4703 19.5687 24.1571 22.0402 27.4714 22.0402Z" fill="#387854"/>
</g>
<path d="M79.016 30.992C78.028 31.148 76.78 31.226 74.388 31.252L71.996 31.304L72.022 34.996C72.048 37.986 72.048 38.74 71.996 38.844L71.918 38.974L70.722 39C70.046 39 69.448 38.974 69.37 38.974L69.24 38.922L69.214 37.388C69.188 36.556 69.162 32.5 69.162 28.418C69.162 21.736 69.162 20.982 69.24 20.904C69.318 20.826 69.604 20.8 71.58 20.8C75.636 20.826 78.08 20.93 79.328 21.19C81.798 21.71 83.28 22.958 83.826 24.908C83.982 25.48 83.956 26.52 83.8 27.144C83.254 29.25 81.668 30.524 79.016 30.992ZM72.048 28.444C72.1 28.522 76.728 28.444 77.43 28.366C78.912 28.236 81.07 27.924 81.07 26C81.07 24.882 80.108 24.206 78.184 23.972C77.04 23.816 72.724 23.66 72.23 23.738L71.996 23.79V26.104C71.996 27.378 72.022 28.444 72.048 28.444ZM88.9306 37.336C88.2806 38.87 88.2286 38.922 88.0726 38.974C87.8906 39 85.4206 39 85.2906 38.948C85.2386 38.948 85.1866 38.896 85.1866 38.87C85.1866 38.662 92.9086 21.008 92.9866 20.93C93.0646 20.826 93.1686 20.826 94.3646 20.826C95.5866 20.826 95.6646 20.826 95.7686 20.93C95.8466 21.034 103.543 38.74 103.543 38.87C103.543 38.896 103.491 38.948 103.439 38.948C103.283 39 100.761 39 100.605 38.974C100.527 38.948 100.345 38.584 99.8246 37.336L99.1486 35.776H89.6066L88.9306 37.336ZM94.3126 24.908C94.1826 25.168 90.8806 32.812 90.8806 32.864C90.8806 32.89 92.2066 32.916 94.3646 32.916C96.5486 32.916 97.8486 32.89 97.8486 32.864C97.8486 32.812 94.7286 25.558 94.4426 24.934L94.3646 24.778L94.3126 24.908ZM118.331 20.904C118.357 20.904 118.357 20.904 118.383 20.904C118.461 20.904 118.305 21.19 114.613 27.092C113.755 28.47 112.975 29.744 112.845 29.926L112.637 30.264L112.689 34.476C112.689 36.79 112.689 38.766 112.663 38.844L112.637 39H111.311C110.037 39 109.959 38.974 109.907 38.896C109.855 38.818 109.855 38.038 109.855 36.712C109.855 35.568 109.829 33.644 109.803 32.474L109.777 30.316L108.867 28.86C106.085 24.44 103.979 21.008 103.979 20.956C103.979 20.93 104.031 20.904 104.057 20.878C104.187 20.826 106.085 20.852 106.761 20.904L107.281 20.93L109.205 24.05C110.271 25.766 111.155 27.144 111.181 27.144C111.207 27.144 112.091 25.766 113.157 24.05L115.107 20.93L115.601 20.904C116.407 20.826 118.253 20.852 118.331 20.904ZM123.915 37.362C123.889 36.504 123.863 32.448 123.863 28.392C123.863 21.606 123.863 20.956 123.941 20.878C124.019 20.8 124.201 20.8 125.319 20.8C126.385 20.826 126.619 20.826 126.645 20.904C126.697 20.956 126.723 23.868 126.723 28.444C126.749 39.494 126.749 38.792 126.671 38.896C126.593 38.974 126.437 39 125.397 39C124.747 39 124.149 38.974 124.071 38.948L123.941 38.922L123.915 37.362ZM146.987 25.948C146.987 29.042 144.543 30.68 141.761 31.018C141.605 31.044 141.475 31.07 141.475 31.07C141.475 31.096 141.657 31.434 141.839 31.798C143.087 34.268 144.803 35.906 146.337 36.14L146.623 36.166L146.649 36.452C146.701 36.868 146.701 38.844 146.649 38.922C146.597 39 146.493 39 146.129 38.974C143.997 38.844 141.969 37.024 140.721 35.412C139.993 34.424 139.239 33.124 138.719 31.85L138.485 31.304L135.053 31.252L135.079 34.97C135.131 37.96 135.105 38.714 135.053 38.818L134.975 38.974H133.753C133.077 38.974 132.479 38.974 132.401 38.948C132.297 38.896 132.297 38.844 132.245 36.868C132.245 35.776 132.219 31.72 132.219 27.924C132.219 21.398 132.219 20.956 132.323 20.878C132.401 20.774 132.635 20.774 135.833 20.8C139.317 20.852 140.461 20.904 141.605 21.034C144.361 21.424 146.987 22.88 146.987 25.948ZM140.461 28.366C141.917 28.21 144.127 27.898 144.127 26C144.153 25.662 144.127 25.532 143.997 25.272C143.555 24.362 142.307 23.946 139.603 23.816C138.069 23.738 135.547 23.686 135.287 23.738L135.079 23.764V26.078C135.079 27.352 135.079 28.418 135.105 28.444C135.183 28.496 139.759 28.444 140.461 28.366ZM164.621 27.924C163.893 26.728 163.789 25.142 164.361 23.842C165.453 21.45 168.027 20.566 170.471 20.566C172.733 20.566 174.891 21.216 176.451 22.308C176.919 22.646 177.751 23.478 177.751 23.608C177.751 23.66 177.257 24.076 176.633 24.518L175.541 25.35L175.151 24.986C174.033 23.868 172.239 23.374 170.705 23.374C169.821 23.374 168.989 23.426 168.183 23.816C166.753 24.518 166.389 25.844 167.377 26.728C168.053 27.326 169.067 27.664 171.771 28.132C174.631 28.678 177.673 29.38 178.583 32.578C178.609 32.734 178.635 33.15 178.661 33.54C178.661 36.92 174.943 38.636 172.031 38.948C171.693 38.974 171.173 38.974 170.679 38.974C168.755 38.974 166.935 38.61 165.297 37.544C164.751 37.18 163.659 36.088 163.659 35.906C163.659 35.776 163.763 35.698 165.297 34.268C165.453 34.138 165.583 34.008 165.635 34.008C165.661 34.008 165.869 34.216 166.103 34.45C167.221 35.594 168.521 36.062 170.705 36.062C171.693 36.036 172.421 35.958 173.175 35.75C173.981 35.49 175.827 34.736 175.827 33.67C175.827 33.176 175.437 32.578 174.839 32.162C174.137 31.668 173.227 31.382 170.991 30.966C168.287 30.472 167.091 30.082 165.999 29.354C165.505 29.016 164.933 28.418 164.621 27.924ZM184.179 37.31C184.153 36.452 184.127 32.422 184.127 28.34C184.127 21.71 184.127 20.956 184.205 20.878C184.283 20.8 185.011 20.8 191.277 20.8C197.647 20.8 198.271 20.8 198.349 20.878C198.427 20.956 198.427 21.138 198.427 22.256C198.401 23.322 198.375 23.556 198.323 23.582C198.271 23.634 196.061 23.634 192.603 23.66H186.961V26.832H191.329C195.125 26.858 195.697 26.858 195.749 26.936C195.801 27.04 195.801 29.354 195.749 29.536L195.697 29.666L191.355 29.692H186.987V32.838C186.987 34.58 186.987 36.01 187.013 36.062C187.039 36.14 187.741 36.14 192.655 36.14C197.673 36.14 198.271 36.166 198.349 36.244C198.427 36.296 198.427 36.504 198.427 37.57C198.427 38.636 198.427 38.844 198.349 38.922C198.271 39 197.569 39 191.355 39C187.585 39 184.413 38.974 184.335 38.948L184.205 38.922L184.179 37.31ZM206.841 37.336C206.191 38.87 206.139 38.922 205.983 38.974C205.801 39 203.331 39 203.201 38.948C203.149 38.948 203.097 38.896 203.097 38.87C203.097 38.662 210.819 21.008 210.897 20.93C210.975 20.826 211.079 20.826 212.275 20.826C213.497 20.826 213.575 20.826 213.679 20.93C213.757 21.034 221.453 38.74 221.453 38.87C221.453 38.896 221.401 38.948 221.349 38.948C221.193 39 218.671 39 218.515 38.974C218.437 38.948 218.255 38.584 217.735 37.336L217.059 35.776H207.517L206.841 37.336ZM212.223 24.908C212.093 25.168 208.791 32.812 208.791 32.864C208.791 32.89 210.117 32.916 212.275 32.916C214.459 32.916 215.759 32.89 215.759 32.864C215.759 32.812 212.639 25.558 212.353 24.934L212.275 24.778L212.223 24.908ZM226.993 37.362C226.967 36.504 226.941 32.448 226.941 28.392C226.941 21.606 226.941 20.956 227.019 20.878C227.097 20.8 227.279 20.8 228.397 20.8C229.463 20.826 229.697 20.826 229.723 20.904C229.775 20.956 229.801 23.868 229.801 28.444C229.827 39.494 229.827 38.792 229.749 38.896C229.671 38.974 229.515 39 228.475 39C227.825 39 227.227 38.974 227.149 38.948L227.019 38.922L226.993 37.362Z" fill="#387854"/>
<defs>
<clipPath id="clip0_121_2">
<rect width="37" height="32" fill="white" transform="translate(9 11)"/>
</clipPath>
</defs>
</svg>
