<svg width="234" height="59" viewBox="0 0 234 59" fill="none" xmlns="http://www.w3.org/2000/svg">
<path d="M54.5 29.5C54.5 45.5499 42.3792 58.5 27.5 58.5C12.6208 58.5 0.5 45.5499 0.5 29.5C0.5 13.4501 12.6208 0.5 27.5 0.5C42.3792 0.5 54.5 13.4501 54.5 29.5Z" stroke="#15603F"/>
<g clip-path="url(#clip0_121_2)">
<path d="M10.66 31.3743C10.1468 31.3809 9.63663 31.415 9.13157 31.4764C9.08766 31.4848 9.0438 31.4934 9 31.5023C9.04004 32.235 9.13285 32.9683 9.27769 33.6964C9.67044 35.6528 10.4335 37.5445 11.5234 39.2637C12.6133 40.9828 14.0086 42.4956 15.6296 43.7158C17.2507 44.9359 19.0657 45.8395 20.9712 46.3749C22.8766 46.9104 24.8351 47.0672 26.7349 46.8363C26.7671 46.8301 26.7993 46.8238 26.8314 46.8173C26.5359 46.6545 25.7824 46.0902 24.701 45.2218C23.6196 44.3535 22.2782 43.2356 20.9082 42.0612C20.1359 41.399 19.3761 40.7373 18.6721 40.1138C17.9681 39.4903 17.3337 38.9172 16.8052 38.4274C16.2767 37.9375 15.8643 37.5403 15.5917 37.2586C15.3191 36.9769 15.1916 36.8162 15.2164 36.7855C15.2667 36.7238 15.9344 37.1958 17.0727 38.0976C18.2109 38.9994 19.7265 40.2573 21.286 41.5944C22.6026 42.7233 23.8667 43.8369 24.8762 44.7571C25.8856 45.6772 26.5819 46.3507 26.8536 46.6696C26.8112 45.9839 26.7227 45.2979 26.5886 44.6164C25.8496 40.935 23.813 37.5447 20.8717 35.0994C17.9304 32.6542 14.2926 31.3271 10.66 31.3743Z" fill="#387854"/>
<path d="M44.34 31.4346C44.8532 31.4412 45.3634 31.4753 45.8684 31.5367C45.9123 31.5451 45.9562 31.5537 46 31.5626C45.96 32.2953 45.8671 33.0286 45.7223 33.7567C45.3296 35.7131 44.5665 37.6048 43.4766 39.324C42.3867 41.0431 40.9914 42.5559 39.3704 43.7761C37.7493 44.9962 35.9343 45.8998 34.0288 46.4352C32.1234 46.9707 30.1649 47.1275 28.2651 46.8967C28.2329 46.8904 28.2007 46.8841 28.1686 46.8776C28.4641 46.7148 29.2176 46.1505 30.299 45.2822C31.3804 44.4138 32.7218 43.2959 34.0918 42.1215C34.8641 41.4593 35.6239 40.7976 36.3279 40.1741C37.0319 39.5506 37.6663 38.9775 38.1948 38.4876C38.7234 37.9978 39.1357 37.6006 39.4083 37.3189C39.6809 37.0372 39.8084 36.8765 39.7836 36.8458C39.7333 36.7841 39.0656 37.2561 37.9273 38.1579C36.7891 39.0597 35.2735 40.3176 33.714 41.6547C32.3974 42.7836 31.1333 43.8972 30.1238 44.8174C29.1144 45.7375 28.4181 46.411 28.1464 46.7299C28.1888 46.0442 28.2773 45.3582 28.4113 44.6768C29.1504 40.9953 31.187 37.605 34.1283 35.1597C37.0696 32.7145 40.7074 31.3874 44.34 31.4346Z" fill="#387854"/>
<path d="M40.4134 22.4506C40.804 22.4557 41.1923 22.4817 41.5767 22.5283C41.6101 22.5348 41.6435 22.5413 41.6768 22.5481C41.6463 23.1057 41.5757 23.6638 41.4655 24.2179C41.1666 25.7068 40.5858 27.1465 39.7564 28.4549C38.9269 29.7632 37.865 30.9146 36.6313 31.8432C35.3976 32.7718 34.0162 33.4595 32.5661 33.867C31.1159 34.2745 29.6254 34.3938 28.1796 34.2181C28.1551 34.2134 28.1306 34.2085 28.1061 34.2036C28.331 34.0797 28.9045 33.6502 29.7275 32.9894C30.5505 32.3285 31.5714 31.4778 32.614 30.5839C33.2018 30.08 33.78 29.5764 34.3158 29.1019C34.8516 28.6274 35.3344 28.1913 35.7366 27.8184C36.1389 27.4456 36.4527 27.1434 36.6601 26.929C36.8676 26.7146 36.9647 26.5922 36.9458 26.5689C36.9075 26.5219 36.3993 26.8811 35.5331 27.5674C34.6668 28.2538 33.5134 29.2111 32.3265 30.2287C31.3245 31.0878 30.3624 31.9354 29.5942 32.6357C28.8259 33.336 28.296 33.8485 28.0893 34.0912C28.1215 33.5694 28.1889 33.0473 28.2909 32.5286C28.8534 29.7269 30.4033 27.1467 32.6418 25.2857C34.8803 23.4247 37.6488 22.4148 40.4134 22.4506Z" fill="#387854"/>
<path d="M14.9124 22.8027C14.5335 22.8076 14.1567 22.8327 13.7838 22.878C13.7513 22.8843 13.7189 22.8907 13.6866 22.8972C13.7162 23.4382 13.7847 23.9797 13.8916 24.5174C14.1817 25.9621 14.7452 27.3591 15.55 28.6286C16.3548 29.898 17.3851 31.0152 18.5822 31.9162C19.7793 32.8172 21.1196 33.4845 22.5267 33.8799C23.9338 34.2753 25.38 34.391 26.7829 34.2206C26.8067 34.216 26.8304 34.2113 26.8542 34.2065C26.636 34.0863 26.0795 33.6696 25.281 33.0284C24.4824 32.3872 23.4918 31.5617 22.4802 30.6944C21.9099 30.2054 21.3488 29.7168 20.8289 29.2563C20.3091 28.7959 19.8406 28.3728 19.4503 28.011C19.06 27.6493 18.7556 27.356 18.5542 27.148C18.3529 26.9399 18.2588 26.8212 18.2771 26.7986C18.3142 26.753 18.8073 27.1015 19.6478 27.7675C20.4884 28.4334 21.6076 29.3623 22.7592 30.3497C23.7314 31.1833 24.6649 32.0057 25.4103 32.6852C26.1557 33.3647 26.6699 33.862 26.8705 34.0975C26.8393 33.5911 26.7739 33.0846 26.6749 32.5813C26.1292 29.8627 24.6253 27.3592 22.4532 25.5535C20.2812 23.7478 17.5949 22.7679 14.9124 22.8027Z" fill="#387854"/>
<path d="M27.4714 23.4202C30.7858 23.4202 33.4725 20.6398 33.4725 17.2101C33.4725 13.7804 30.7858 11 27.4714 11C24.1571 11 21.4703 13.7804 21.4703 17.2101C21.4703 20.6398 24.1571 23.4202 27.4714 23.4202Z" fill="#387854"/>
</g>
<path d="M79.016 30.992C78.028 31.148 76.78 31.226 74.388 31.252L71.996 31.304L72.022 34.996C72.048 37.986 72.048 38.74 71.996 38.844L71.918 38.974L70.722 39C70.046 39 69.448 38.974 69.37 38.974L69.24 38.922L69.214 37.388C69.188 36.556 69.162 32.5 69.162 28.418C69.162 21.736 69.162 20.982 69.24 20.904C69.318 20.826 69.604 20.8 71.58 20.8C75.636 20.826 78.08 20.93 79.328 21.19C81.798 21.71 83.28 22.958 83.826 24.908C83.982 25.48 83.956 26.52 83.8 27.144C83.254 29.25 81.668 30.524 79.016 30.992ZM72.048 28.444C72.1 28.522 76.728 28.444 77.43 28.366C78.912 28.236 81.07 27.924 81.07 26C81.07 24.882 80.108 24.206 78.184 23.972C77.04 23.816 72.724 23.66 72.23 23.738L71.996 23.79V26.104C71.996 27.378 72.022 28.444 72.048 28.444ZM88.9306 37.336C88.2806 38.87 88.2286 38.922 88.0726 38.974C87.8906 39 85.4206 39 85.2906 38.948C85.2386 38.948 85.1866 38.896 85.1866 38.87C85.1866 38.662 92.9086 21.008 92.9866 20.93C93.0646 20.826 93.1686 20.826 94.3646 20.826C95.5866 20.826 95.6646 20.826 95.7686 20.93C95.8466 21.034 103.543 38.74 103.543 38.87C103.543 38.896 103.491 38.948 103.439 38.948C103.283 39 100.761 39 100.605 38.974C100.527 38.948 100.345 38.584 99.8246 37.336L99.1486 35.776H89.6066L88.9306 37.336ZM94.3126 24.908C94.1826 25.168 90.8806 32.812 90.8806 32.864C90.8806 32.89 92.2066 32.916 94.3646 32.916C96.5486 32.916 97.8486 32.89 97.8486 32.864C97.8486 32.812 94.7286 25.558 94.4426 24.934L94.3646 24.778L94.3126 24.908ZM118.331 20.904C118.357 20.904 118.357 20.904 118.383 20.904C118.461 20.904 118.305 21.19 114.613 27.092C113.755 28.47 112.975 29.744 112.845 29.926L112.637 30.264L112.689 34.476C112.689 36.79 112.689 38.766 112.663 38.844L112.637 39H111.311C110.037 39 109.959 38.974 109.907 38.896C109.855 38.818 109.855 38.038 109.855 36.712C109.855 35.568 109.829 33.644 109.803 32.474L109.777 30.316L108.867 28.86C106.085 24.44 103.979 21.008 103.979 20.956C103.979 20.93 104.031 20.904 104.057 20.878C104.187 20.826 106.085 20.852 106.761 20.904L107.281 20.93L109.205 24.05C110.271 25.766 111.155 27.144 111.181 27.144C111.207 27.144 112.091 25.766 113.157 24.05L115.107 20.93L115.601 20.904C116.407 20.826 118.253 20.852 118.331 20.904ZM123.915 37.362C123.889 36.504 123.863 32.448 123.863 28.392C123.863 21.606 123.863 20.956 123.941 20.878C124.019 20.8 124.201 20.8 125.319 20.8C126.385 20.826 126.619 20.826 126.645 20.904C126.697 20.956 126.723 23.868 126.723 28.444C126.749 39.494 126.749 38.792 126.671 38.896C126.593 38.974 126.437 39 125.397 39C124.747 39 124.149 38.974 124.071 38.948L123.941 38.922L123.915 37.362ZM146.987 25.948C146.987 29.042 144.543 30.68 141.761 31.018C141.605 31.044 141.475 31.07 141.475 31.07C141.475 31.096 141.657 31.434 141.839 31.798C143.087 34.268 144.803 35.906 146.337 36.14L146.623 36.166L146.649 36.452C146.701 36.868 146.701 38.844 146.649 38.922C146.597 39 146.493 39 146.129 38.974C143.997 38.844 141.969 37.024 140.721 35.412C139.993 34.424 139.239 33.124 138.719 31.85L138.485 31.304L135.053 31.252L135.079 34.97C135.131 37.96 135.105 38.714 135.053 38.818L134.975 38.974H133.753C133.077 38.974 132.479 38.974 132.401 38.948C132.297 38.896 132.297 38.844 132.245 36.868C132.245 35.776 132.219 31.72 132.219 27.924C132.219 21.398 132.219 20.956 132.323 20.878C132.401 20.774 132.635 20.774 135.833 20.8C139.317 20.852 140.461 20.904 141.605 21.034C144.361 21.424 146.987 22.88 146.987 25.948ZM140.461 28.366C141.917 28.21 144.127 27.898 144.127 26C144.153 25.662 144.127 25.532 143.997 25.272C143.555 24.362 142.307 23.946 139.603 23.816C138.069 23.738 135.547 23.686 135.287 23.738L135.079 23.764V26.078C135.079 27.352 135.079 28.418 135.105 28.444C135.183 28.496 139.759 28.444 140.461 28.366ZM164.621 27.924C163.893 26.728 163.789 25.142 164.361 23.842C165.453 21.45 168.027 20.566 170.471 20.566C172.733 20.566 174.891 21.216 176.451 22.308C176.919 22.646 177.751 23.478 177.751 23.608C177.751 23.66 177.257 24.076 176.633 24.518L175.541 25.35L175.151 24.986C174.033 23.868 172.239 23.374 170.705 23.374C169.821 23.374 168.989 23.426 168.183 23.816C166.753 24.518 166.389 25.844 167.377 26.728C168.053 27.326 169.067 27.664 171.771 28.132C174.631 28.678 177.673 29.38 178.583 32.578C178.609 32.734 178.635 33.15 178.661 33.54C178.661 36.92 174.943 38.636 172.031 38.948C171.693 38.974 171.173 38.974 170.679 38.974C168.755 38.974 166.935 38.61 165.297 37.544C164.751 37.18 163.659 36.088 163.659 35.906C163.659 35.776 163.763 35.698 165.297 34.268C165.453 34.138 165.583 34.008 165.635 34.008C165.661 34.008 165.869 34.216 166.103 34.45C167.221 35.594 168.521 36.062 170.705 36.062C171.693 36.036 172.421 35.958 173.175 35.75C173.981 35.49 175.827 34.736 175.827 33.67C175.827 33.176 175.437 32.578 174.839 32.162C174.137 31.668 173.227 31.382 170.991 30.966C168.287 30.472 167.091 30.082 165.999 29.354C165.505 29.016 164.933 28.418 164.621 27.924ZM184.179 37.31C184.153 36.452 184.127 32.422 184.127 28.34C184.127 21.71 184.127 20.956 184.205 20.878C184.283 20.8 185.011 20.8 191.277 20.8C197.647 20.8 198.271 20.8 198.349 20.878C198.427 20.956 198.427 21.138 198.427 22.256C198.401 23.322 198.375 23.556 198.323 23.582C198.271 23.634 196.061 23.634 192.603 23.66H186.961V26.832H191.329C195.125 26.858 195.697 26.858 195.749 26.936C195.801 27.04 195.801 29.354 195.749 29.536L195.697 29.666L191.355 29.692H186.987V32.838C186.987 34.58 186.987 36.01 187.013 36.062C187.039 36.14 187.741 36.14 192.655 36.14C197.673 36.14 198.271 36.166 198.349 36.244C198.427 36.296 198.427 36.504 198.427 37.57C198.427 38.636 198.427 38.844 198.349 38.922C198.271 39 197.569 39 191.355 39C187.585 39 184.413 38.974 184.335 38.948L184.205 38.922L184.179 37.31ZM206.841 37.336C206.191 38.87 206.139 38.922 205.983 38.974C205.801 39 203.331 39 203.201 38.948C203.149 38.948 203.097 38.896 203.097 38.87C203.097 38.662 210.819 21.008 210.897 20.93C210.975 20.826 211.079 20.826 212.275 20.826C213.497 20.826 213.575 20.826 213.679 20.93C213.757 21.034 221.453 38.74 221.453 38.87C221.453 38.896 221.401 38.948 221.349 38.948C221.193 39 218.671 39 218.515 38.974C218.437 38.948 218.255 38.584 217.735 37.336L217.059 35.776H207.517L206.841 37.336ZM212.223 24.908C212.093 25.168 208.791 32.812 208.791 32.864C208.791 32.89 210.117 32.916 212.275 32.916C214.459 32.916 215.759 32.89 215.759 32.864C215.759 32.812 212.639 25.558 212.353 24.934L212.275 24.778L212.223 24.908ZM226.993 37.362C226.967 36.504 226.941 32.448 226.941 28.392C226.941 21.606 226.941 20.956 227.019 20.878C227.097 20.8 227.279 20.8 228.397 20.8C229.463 20.826 229.697 20.826 229.723 20.904C229.775 20.956 229.801 23.868 229.801 28.444C229.827 39.494 229.827 38.792 229.749 38.896C229.671 38.974 229.515 39 228.475 39C227.825 39 227.227 38.974 227.149 38.948L227.019 38.922L226.993 37.362Z" fill="#387854"/>
<defs>
<clipPath id="clip0_121_2">
<rect width="37" height="36" fill="white" transform="translate(9 11)"/>
</clipPath>
</defs>
</svg>
